<mxfile host="app.diagrams.net" modified="2021-04-11T17:51:01.540Z" agent="5.0 (Macintosh; Intel Mac OS X 11_2_3) AppleWebKit/537.36 (KHTML, like Gecko) Chrome/89.0.4389.114 Safari/537.36" etag="s8Nbzt0MqC7oSPQvGvJH" version="14.5.8" type="github">
  <diagram id="uWqBroCjyXyHmRQUqWvy" name="Page-1">
    <mxGraphModel dx="890" dy="662" grid="0" gridSize="10" guides="1" tooltips="1" connect="1" arrows="1" fold="1" page="1" pageScale="1" pageWidth="827" pageHeight="1169" math="0" shadow="0">
      <root>
        <mxCell id="0" />
        <mxCell id="1" parent="0" />
        <mxCell id="nOubKL9727zP79BDSy-0-95" value="" style="group" vertex="1" connectable="0" parent="1">
          <mxGeometry x="314" y="612" width="172" height="106" as="geometry" />
        </mxCell>
        <mxCell id="nOubKL9727zP79BDSy-0-82" value="vuex: dataSrc/leadsSource" style="rounded=0;whiteSpace=wrap;html=1;align=center;verticalAlign=top;container=0;" vertex="1" parent="nOubKL9727zP79BDSy-0-95">
          <mxGeometry width="172" height="106" as="geometry" />
        </mxCell>
        <mxCell id="nOubKL9727zP79BDSy-0-85" value="reload()" style="text;html=1;strokeColor=none;fillColor=none;align=center;verticalAlign=middle;whiteSpace=wrap;rounded=0;container=0;" vertex="1" parent="nOubKL9727zP79BDSy-0-95">
          <mxGeometry x="17" y="75.75" width="40" height="20" as="geometry" />
        </mxCell>
        <mxCell id="nOubKL9727zP79BDSy-0-86" value="reload data" style="ellipse;whiteSpace=wrap;html=1;align=center;container=0;" vertex="1" parent="nOubKL9727zP79BDSy-0-95">
          <mxGeometry x="86" y="71" width="69" height="29.5" as="geometry" />
        </mxCell>
        <mxCell id="nOubKL9727zP79BDSy-0-87" value="" style="edgeStyle=orthogonalEdgeStyle;rounded=0;orthogonalLoop=1;jettySize=auto;html=1;" edge="1" parent="nOubKL9727zP79BDSy-0-95" source="nOubKL9727zP79BDSy-0-85" target="nOubKL9727zP79BDSy-0-86">
          <mxGeometry x="1" y="46" as="geometry" />
        </mxCell>
        <mxCell id="nOubKL9727zP79BDSy-0-91" value="leads source data" style="strokeWidth=2;html=1;shape=mxgraph.flowchart.stored_data;whiteSpace=wrap;align=center;" vertex="1" parent="nOubKL9727zP79BDSy-0-95">
          <mxGeometry x="16" y="30" width="140" height="23" as="geometry" />
        </mxCell>
        <mxCell id="nOubKL9727zP79BDSy-0-94" style="edgeStyle=orthogonalEdgeStyle;rounded=0;orthogonalLoop=1;jettySize=auto;html=1;exitX=0.5;exitY=0;exitDx=0;exitDy=0;entryX=0.743;entryY=0.957;entryDx=0;entryDy=0;entryPerimeter=0;" edge="1" parent="nOubKL9727zP79BDSy-0-95" source="nOubKL9727zP79BDSy-0-86" target="nOubKL9727zP79BDSy-0-91">
          <mxGeometry relative="1" as="geometry" />
        </mxCell>
        <mxCell id="nOubKL9727zP79BDSy-0-68" value="" style="group" vertex="1" connectable="0" parent="1">
          <mxGeometry x="347" y="769" width="240" height="330" as="geometry" />
        </mxCell>
        <mxCell id="nOubKL9727zP79BDSy-0-4" value="数据编辑面板" style="rounded=0;whiteSpace=wrap;html=1;verticalAlign=top;" vertex="1" parent="nOubKL9727zP79BDSy-0-68">
          <mxGeometry width="240" height="300" as="geometry" />
        </mxCell>
        <mxCell id="nOubKL9727zP79BDSy-0-5" value="修改" style="text;html=1;strokeColor=none;fillColor=none;align=center;verticalAlign=middle;whiteSpace=wrap;rounded=0;" vertex="1" parent="nOubKL9727zP79BDSy-0-68">
          <mxGeometry x="10" y="30" width="40" height="20" as="geometry" />
        </mxCell>
        <mxCell id="nOubKL9727zP79BDSy-0-6" value="新增" style="text;html=1;strokeColor=none;fillColor=none;align=center;verticalAlign=middle;whiteSpace=wrap;rounded=0;" vertex="1" parent="nOubKL9727zP79BDSy-0-68">
          <mxGeometry x="10" y="60" width="40" height="20" as="geometry" />
        </mxCell>
        <mxCell id="nOubKL9727zP79BDSy-0-7" value="form(formData)" style="rounded=0;whiteSpace=wrap;html=1;" vertex="1" parent="nOubKL9727zP79BDSy-0-68">
          <mxGeometry x="100" y="39" width="120" height="32" as="geometry" />
        </mxCell>
        <mxCell id="nOubKL9727zP79BDSy-0-8" value="" style="edgeStyle=orthogonalEdgeStyle;rounded=0;orthogonalLoop=1;jettySize=auto;html=1;" edge="1" parent="nOubKL9727zP79BDSy-0-68" source="nOubKL9727zP79BDSy-0-5" target="nOubKL9727zP79BDSy-0-7">
          <mxGeometry relative="1" as="geometry" />
        </mxCell>
        <mxCell id="nOubKL9727zP79BDSy-0-9" value="" style="edgeStyle=orthogonalEdgeStyle;rounded=0;orthogonalLoop=1;jettySize=auto;html=1;" edge="1" parent="nOubKL9727zP79BDSy-0-68" source="nOubKL9727zP79BDSy-0-6" target="nOubKL9727zP79BDSy-0-7">
          <mxGeometry relative="1" as="geometry" />
        </mxCell>
        <mxCell id="nOubKL9727zP79BDSy-0-10" value="emit:success(formData)" style="text;html=1;strokeColor=none;fillColor=none;align=center;verticalAlign=middle;whiteSpace=wrap;rounded=0;" vertex="1" parent="nOubKL9727zP79BDSy-0-68">
          <mxGeometry x="100" y="151" width="128" height="20" as="geometry" />
        </mxCell>
        <mxCell id="nOubKL9727zP79BDSy-0-11" value="emit:error(e)" style="text;html=1;strokeColor=none;fillColor=none;align=center;verticalAlign=middle;whiteSpace=wrap;rounded=0;" vertex="1" parent="nOubKL9727zP79BDSy-0-68">
          <mxGeometry x="20" y="140" width="60" height="20" as="geometry" />
        </mxCell>
        <mxCell id="nOubKL9727zP79BDSy-0-17" style="edgeStyle=orthogonalEdgeStyle;rounded=0;orthogonalLoop=1;jettySize=auto;html=1;entryX=0.5;entryY=0;entryDx=0;entryDy=0;" edge="1" parent="nOubKL9727zP79BDSy-0-68" target="nOubKL9727zP79BDSy-0-11">
          <mxGeometry relative="1" as="geometry">
            <mxPoint x="116" y="102" as="sourcePoint" />
          </mxGeometry>
        </mxCell>
        <mxCell id="nOubKL9727zP79BDSy-0-77" value="失败" style="edgeLabel;html=1;align=center;verticalAlign=middle;resizable=0;points=[];" vertex="1" connectable="0" parent="nOubKL9727zP79BDSy-0-17">
          <mxGeometry x="-0.1959" y="3" relative="1" as="geometry">
            <mxPoint x="1" y="-3.5" as="offset" />
          </mxGeometry>
        </mxCell>
        <mxCell id="nOubKL9727zP79BDSy-0-16" style="edgeStyle=orthogonalEdgeStyle;rounded=0;orthogonalLoop=1;jettySize=auto;html=1;exitX=0.5;exitY=1;exitDx=0;exitDy=0;entryX=0.5;entryY=0;entryDx=0;entryDy=0;entryPerimeter=0;" edge="1" parent="nOubKL9727zP79BDSy-0-68" source="nOubKL9727zP79BDSy-0-7" target="nOubKL9727zP79BDSy-0-74">
          <mxGeometry relative="1" as="geometry">
            <mxPoint x="160" y="100" as="targetPoint" />
          </mxGeometry>
        </mxCell>
        <mxCell id="nOubKL9727zP79BDSy-0-20" value="IView Modal" style="rounded=0;whiteSpace=wrap;html=1;" vertex="1" parent="nOubKL9727zP79BDSy-0-68">
          <mxGeometry y="300" width="240" height="30" as="geometry" />
        </mxCell>
        <mxCell id="nOubKL9727zP79BDSy-0-21" value="close" style="rounded=1;whiteSpace=wrap;html=1;" vertex="1" parent="nOubKL9727zP79BDSy-0-68">
          <mxGeometry x="10" y="260" width="70" height="20" as="geometry" />
        </mxCell>
        <mxCell id="nOubKL9727zP79BDSy-0-24" value="close()" style="text;html=1;strokeColor=none;fillColor=none;align=center;verticalAlign=middle;whiteSpace=wrap;rounded=0;" vertex="1" parent="nOubKL9727zP79BDSy-0-68">
          <mxGeometry x="110" y="260" width="40" height="20" as="geometry" />
        </mxCell>
        <mxCell id="nOubKL9727zP79BDSy-0-25" value="" style="edgeStyle=orthogonalEdgeStyle;rounded=0;orthogonalLoop=1;jettySize=auto;html=1;" edge="1" parent="nOubKL9727zP79BDSy-0-68" source="nOubKL9727zP79BDSy-0-21" target="nOubKL9727zP79BDSy-0-24">
          <mxGeometry relative="1" as="geometry" />
        </mxCell>
        <mxCell id="nOubKL9727zP79BDSy-0-27" value="init" style="ellipse;whiteSpace=wrap;html=1;" vertex="1" parent="nOubKL9727zP79BDSy-0-68">
          <mxGeometry x="10" y="173" width="55" height="30" as="geometry" />
        </mxCell>
        <mxCell id="nOubKL9727zP79BDSy-0-79" value="" style="edgeStyle=orthogonalEdgeStyle;rounded=0;orthogonalLoop=1;jettySize=auto;html=1;" edge="1" parent="nOubKL9727zP79BDSy-0-68" source="nOubKL9727zP79BDSy-0-28" target="nOubKL9727zP79BDSy-0-78">
          <mxGeometry relative="1" as="geometry" />
        </mxCell>
        <mxCell id="nOubKL9727zP79BDSy-0-28" value="initState()" style="text;html=1;strokeColor=none;fillColor=none;align=left;verticalAlign=middle;whiteSpace=wrap;rounded=0;" vertex="1" parent="nOubKL9727zP79BDSy-0-68">
          <mxGeometry x="50" y="213" width="60" height="20" as="geometry" />
        </mxCell>
        <mxCell id="nOubKL9727zP79BDSy-0-37" value="" style="edgeStyle=orthogonalEdgeStyle;rounded=0;orthogonalLoop=1;jettySize=auto;html=1;entryX=0;entryY=0.5;entryDx=0;entryDy=0;" edge="1" parent="nOubKL9727zP79BDSy-0-68" source="nOubKL9727zP79BDSy-0-27" target="nOubKL9727zP79BDSy-0-28">
          <mxGeometry relative="1" as="geometry" />
        </mxCell>
        <mxCell id="nOubKL9727zP79BDSy-0-41" value="emit:close" style="text;html=1;strokeColor=none;fillColor=none;align=center;verticalAlign=middle;whiteSpace=wrap;rounded=0;" vertex="1" parent="nOubKL9727zP79BDSy-0-68">
          <mxGeometry x="180" y="260" width="60" height="20" as="geometry" />
        </mxCell>
        <mxCell id="nOubKL9727zP79BDSy-0-42" value="" style="edgeStyle=orthogonalEdgeStyle;rounded=0;orthogonalLoop=1;jettySize=auto;html=1;" edge="1" parent="nOubKL9727zP79BDSy-0-68" source="nOubKL9727zP79BDSy-0-24" target="nOubKL9727zP79BDSy-0-41">
          <mxGeometry relative="1" as="geometry" />
        </mxCell>
        <mxCell id="nOubKL9727zP79BDSy-0-75" style="edgeStyle=orthogonalEdgeStyle;rounded=0;orthogonalLoop=1;jettySize=auto;html=1;exitX=1;exitY=0.5;exitDx=0;exitDy=0;exitPerimeter=0;" edge="1" parent="nOubKL9727zP79BDSy-0-68" source="nOubKL9727zP79BDSy-0-74" target="nOubKL9727zP79BDSy-0-10">
          <mxGeometry relative="1" as="geometry" />
        </mxCell>
        <mxCell id="nOubKL9727zP79BDSy-0-76" value="成功" style="edgeLabel;html=1;align=center;verticalAlign=middle;resizable=0;points=[];" vertex="1" connectable="0" parent="nOubKL9727zP79BDSy-0-75">
          <mxGeometry x="-0.52" relative="1" as="geometry">
            <mxPoint x="-2" y="2" as="offset" />
          </mxGeometry>
        </mxCell>
        <mxCell id="nOubKL9727zP79BDSy-0-74" value="submit" style="strokeWidth=2;html=1;shape=mxgraph.flowchart.decision;whiteSpace=wrap;align=center;" vertex="1" parent="nOubKL9727zP79BDSy-0-68">
          <mxGeometry x="119" y="86" width="77" height="31" as="geometry" />
        </mxCell>
        <mxCell id="nOubKL9727zP79BDSy-0-78" value="&lt;span&gt;fill init data&lt;/span&gt;" style="ellipse;whiteSpace=wrap;html=1;align=center;" vertex="1" parent="nOubKL9727zP79BDSy-0-68">
          <mxGeometry x="145" y="204" width="69" height="38" as="geometry" />
        </mxCell>
        <mxCell id="nOubKL9727zP79BDSy-0-70" value="" style="group" vertex="1" connectable="0" parent="1">
          <mxGeometry x="519" y="623" width="172" height="60" as="geometry" />
        </mxCell>
        <mxCell id="nOubKL9727zP79BDSy-0-2" value="数据表格" style="rounded=0;whiteSpace=wrap;html=1;verticalAlign=top;" vertex="1" parent="nOubKL9727zP79BDSy-0-70">
          <mxGeometry width="172" height="60" as="geometry" />
        </mxCell>
        <mxCell id="nOubKL9727zP79BDSy-0-3" value="search table" style="rounded=0;whiteSpace=wrap;html=1;" vertex="1" parent="nOubKL9727zP79BDSy-0-70">
          <mxGeometry y="30" width="147.42857142857142" height="30" as="geometry" />
        </mxCell>
        <mxCell id="nOubKL9727zP79BDSy-0-83" value="" style="group" vertex="1" connectable="0" parent="1">
          <mxGeometry x="83" y="769" width="240" height="301" as="geometry" />
        </mxCell>
        <mxCell id="nOubKL9727zP79BDSy-0-43" value="级联选择" style="rounded=0;whiteSpace=wrap;html=1;align=center;verticalAlign=top;container=0;" vertex="1" parent="nOubKL9727zP79BDSy-0-83">
          <mxGeometry width="240" height="301" as="geometry" />
        </mxCell>
        <mxCell id="nOubKL9727zP79BDSy-0-45" value="init" style="ellipse;whiteSpace=wrap;html=1;container=0;" vertex="1" parent="nOubKL9727zP79BDSy-0-83">
          <mxGeometry x="13" y="35.5" width="55" height="20" as="geometry" />
        </mxCell>
        <mxCell id="nOubKL9727zP79BDSy-0-46" value="loadDataSrc()" style="text;html=1;strokeColor=none;fillColor=none;align=left;verticalAlign=middle;whiteSpace=wrap;rounded=0;container=0;" vertex="1" parent="nOubKL9727zP79BDSy-0-83">
          <mxGeometry x="93" y="35.5" width="80" height="20" as="geometry" />
        </mxCell>
        <mxCell id="nOubKL9727zP79BDSy-0-48" value="" style="edgeStyle=orthogonalEdgeStyle;rounded=0;orthogonalLoop=1;jettySize=auto;html=1;" edge="1" parent="nOubKL9727zP79BDSy-0-83" source="nOubKL9727zP79BDSy-0-45" target="nOubKL9727zP79BDSy-0-46">
          <mxGeometry x="3" y="0.5" as="geometry" />
        </mxCell>
        <mxCell id="nOubKL9727zP79BDSy-0-49" value="选择" style="rounded=1;whiteSpace=wrap;html=1;align=center;container=0;" vertex="1" parent="nOubKL9727zP79BDSy-0-83">
          <mxGeometry x="13" y="102" width="60" height="20" as="geometry" />
        </mxCell>
        <mxCell id="nOubKL9727zP79BDSy-0-51" value="emit:change" style="text;html=1;strokeColor=none;fillColor=none;align=left;verticalAlign=middle;whiteSpace=wrap;rounded=0;container=0;" vertex="1" parent="nOubKL9727zP79BDSy-0-83">
          <mxGeometry x="113" y="102" width="80" height="20" as="geometry" />
        </mxCell>
        <mxCell id="nOubKL9727zP79BDSy-0-55" style="edgeStyle=orthogonalEdgeStyle;rounded=0;orthogonalLoop=1;jettySize=auto;html=1;exitX=1;exitY=0.5;exitDx=0;exitDy=0;entryX=0;entryY=0.5;entryDx=0;entryDy=0;" edge="1" parent="nOubKL9727zP79BDSy-0-83" source="nOubKL9727zP79BDSy-0-49" target="nOubKL9727zP79BDSy-0-51">
          <mxGeometry x="3" y="32" as="geometry" />
        </mxCell>
        <mxCell id="nOubKL9727zP79BDSy-0-52" value="emit:input" style="text;html=1;strokeColor=none;fillColor=none;align=left;verticalAlign=middle;whiteSpace=wrap;rounded=0;container=0;" vertex="1" parent="nOubKL9727zP79BDSy-0-83">
          <mxGeometry x="113" y="122" width="70" height="20" as="geometry" />
        </mxCell>
        <mxCell id="nOubKL9727zP79BDSy-0-56" style="edgeStyle=orthogonalEdgeStyle;rounded=0;orthogonalLoop=1;jettySize=auto;html=1;exitX=1;exitY=0.5;exitDx=0;exitDy=0;entryX=0;entryY=0.5;entryDx=0;entryDy=0;" edge="1" parent="nOubKL9727zP79BDSy-0-83" source="nOubKL9727zP79BDSy-0-49" target="nOubKL9727zP79BDSy-0-52">
          <mxGeometry x="3" y="32" as="geometry" />
        </mxCell>
        <mxCell id="nOubKL9727zP79BDSy-0-62" value="update model data" style="ellipse;whiteSpace=wrap;html=1;align=center;container=0;" vertex="1" parent="nOubKL9727zP79BDSy-0-83">
          <mxGeometry x="88" y="156.5" width="120" height="30" as="geometry" />
        </mxCell>
        <mxCell id="nOubKL9727zP79BDSy-0-64" style="edgeStyle=orthogonalEdgeStyle;rounded=0;orthogonalLoop=1;jettySize=auto;html=1;exitX=0.5;exitY=1;exitDx=0;exitDy=0;entryX=0.5;entryY=0;entryDx=0;entryDy=0;" edge="1" parent="nOubKL9727zP79BDSy-0-83" source="nOubKL9727zP79BDSy-0-52" target="nOubKL9727zP79BDSy-0-62">
          <mxGeometry x="3" y="32" as="geometry" />
        </mxCell>
        <mxCell id="nOubKL9727zP79BDSy-0-72" value="shorthand create" style="rounded=1;whiteSpace=wrap;html=1;align=center;container=0;" vertex="1" parent="nOubKL9727zP79BDSy-0-83">
          <mxGeometry x="13" y="256.5" width="60" height="31" as="geometry" />
        </mxCell>
        <mxCell id="nOubKL9727zP79BDSy-0-73" value="call" style="edgeStyle=orthogonalEdgeStyle;rounded=0;orthogonalLoop=1;jettySize=auto;html=1;exitX=1;exitY=0.5;exitDx=0;exitDy=0;" edge="1" parent="1" source="nOubKL9727zP79BDSy-0-72">
          <mxGeometry relative="1" as="geometry">
            <mxPoint x="347" y="1041" as="targetPoint" />
            <Array as="points">
              <mxPoint x="347" y="1041" />
            </Array>
          </mxGeometry>
        </mxCell>
        <mxCell id="nOubKL9727zP79BDSy-0-89" style="edgeStyle=orthogonalEdgeStyle;rounded=0;orthogonalLoop=1;jettySize=auto;html=1;exitX=1;exitY=0.5;exitDx=0;exitDy=0;entryX=0;entryY=0.5;entryDx=0;entryDy=0;entryPerimeter=0;" edge="1" parent="1" source="nOubKL9727zP79BDSy-0-46" target="nOubKL9727zP79BDSy-0-91">
          <mxGeometry relative="1" as="geometry" />
        </mxCell>
        <mxCell id="nOubKL9727zP79BDSy-0-99" value="use" style="edgeLabel;html=1;align=center;verticalAlign=middle;resizable=0;points=[];" vertex="1" connectable="0" parent="nOubKL9727zP79BDSy-0-89">
          <mxGeometry x="-0.4255" relative="1" as="geometry">
            <mxPoint y="1" as="offset" />
          </mxGeometry>
        </mxCell>
        <mxCell id="nOubKL9727zP79BDSy-0-90" style="edgeStyle=orthogonalEdgeStyle;rounded=0;orthogonalLoop=1;jettySize=auto;html=1;exitX=1;exitY=0.5;exitDx=0;exitDy=0;exitPerimeter=0;entryX=0.75;entryY=1;entryDx=0;entryDy=0;" edge="1" parent="1" source="nOubKL9727zP79BDSy-0-74" target="nOubKL9727zP79BDSy-0-85">
          <mxGeometry relative="1" as="geometry">
            <Array as="points">
              <mxPoint x="606" y="871" />
              <mxPoint x="606" y="728" />
              <mxPoint x="361" y="728" />
            </Array>
          </mxGeometry>
        </mxCell>
        <mxCell id="nOubKL9727zP79BDSy-0-101" value="call" style="edgeLabel;html=1;align=center;verticalAlign=middle;resizable=0;points=[];" vertex="1" connectable="0" parent="nOubKL9727zP79BDSy-0-90">
          <mxGeometry x="-0.7005" y="-3" relative="1" as="geometry">
            <mxPoint as="offset" />
          </mxGeometry>
        </mxCell>
        <mxCell id="nOubKL9727zP79BDSy-0-44" value="IView 级联" style="rounded=0;whiteSpace=wrap;html=1;container=0;" vertex="1" parent="1">
          <mxGeometry x="83" y="1070" width="240" height="30" as="geometry" />
        </mxCell>
        <mxCell id="nOubKL9727zP79BDSy-0-98" style="edgeStyle=orthogonalEdgeStyle;rounded=0;orthogonalLoop=1;jettySize=auto;html=1;exitX=0;exitY=0;exitDx=0;exitDy=0;entryX=0.93;entryY=0.5;entryDx=0;entryDy=0;entryPerimeter=0;" edge="1" parent="1" source="nOubKL9727zP79BDSy-0-3" target="nOubKL9727zP79BDSy-0-91">
          <mxGeometry relative="1" as="geometry">
            <Array as="points">
              <mxPoint x="509" y="654" />
            </Array>
          </mxGeometry>
        </mxCell>
        <mxCell id="nOubKL9727zP79BDSy-0-100" value="use" style="edgeLabel;html=1;align=center;verticalAlign=middle;resizable=0;points=[];" vertex="1" connectable="0" parent="nOubKL9727zP79BDSy-0-98">
          <mxGeometry x="-0.2174" y="1" relative="1" as="geometry">
            <mxPoint x="10.99" y="-0.63" as="offset" />
          </mxGeometry>
        </mxCell>
      </root>
    </mxGraphModel>
  </diagram>
</mxfile>
